<svg xmlns="http://www.w3.org/2000/svg" viewBox="0 0 3207.84 4478.23">
  <defs>
    <style>
      .cls-1{fill:#ff9a9a;stroke:#ff9a9a;stroke-miterlimit:10;}
    </style>
  </defs>

  <g id="Layer_8" data-name="Layer 8">
    <path class="cls-1" d="M3506,2275.2" transform="translate(-297.78 -435.88)"/>
    <path class="cls-1" d="M3428.35,2411.11" transform="translate(-297.78 -435.88)"/>
    <path class="cls-1" d="M2280,1475.72c.75,1.75,3.05,1.24,5.46,2.43,14.07,6.95,54.32.11,70,.09l109.71-.16,3.51-18.34-11.06-131,3.78-146.16c2.87-99,21-214.14,1.67-311-11.88-59.6-59.32-103.92-107.38-136.63C2239,655.56,2123.9,575,2009.36,491.84c-31.82-23.09-65.08-46.81-103.78-53.75-55.13-9.87-81.23,24.77-118.73,55.93-54.14,45-113.93,84.7-171.57,125q-117.85,82.46-239.74,159c-59.81,37.52-108.65,60.74-147.63,123.13-21.21,33.93-28.9,67.73-26.23,107.18,6.22,91.85,14.77,183.39,18.13,275.06l12.94,59.87,38.83,40.45,64.72,68,116.5,129.44,63.1,59.87,121.35,103.55,189.3,163.41,163.42,144,328.45,305.8L2470.51,2492l173.12,135.91,127.72,101.86c72.62,57.91,159.26,158.65,261.25,129.69,35.51-10.08,69.2-28.6,104.51-40.63,26.45-9,48.45-49,62.94-70.45,23.67-23.67,41.14-60.85,59.95-88.65l63.27-93.58c36.52-54,71.55-117.11,116.67-164.15,11-11.52,23.24-22.09,32.43-35.13,11.9-16.87,18.18-37,24.27-56.7,22.6-73.16-2.23-126.44-47.91-184.33q-98.7-125-197.38-250.09c-32-40.58-67.27-80.07-96.7-122.55-22.53-32.53-42.29-64.83-84.46-73.93-15.45-3.34-31.42-3.2-47.24-3-111.53,1.12-223.12,2.24-334.47,8.64-85.88,4.94-171.59,13-257.6,15.71-71.52,2.23-148.53-13.12-217.63,3.47l-14,4a4.92,4.92,0,0,0-1.89,8.42l32.46,28.44,30.34,27.1c46.27,44.78,95.89,103.1,144,133.48,15.37,9.71,84.42,4.91,121,2.24a3411.52,3411.52,0,0,1,431.6-4.08c15.47.83,31.43,1.9,45.27,8.87s24.35,19.32,34.31,31.33q108.83,131.34,209.76,269c7.95,10.83,16.13,22.38,17.53,35.74,1.92,18.2-9,35-19.52,50l-235,336.68c-7.68,11-17.63,23.21-31,22.79-8.63-.27-16-5.88-22.8-11.25q-287.06-227.85-563.1-469.15c-91-79.55-198.22-181.56-287.34-263.23-81.94-75.08-116.68-96.67-194.15-174.74-84.22-72.34-207.91-173.2-288.1-250.05-41-39.28-80.78-79.82-118.45-122.3-22-24.79-67.77-64.07-67.19-98.87,1.69-102-4.38-212.37,9.38-320,83.32-55,141.59-101.19,214.25-149,35.37-23.29,70.47-46.92,105-71.45,14.12-10,45.61-34.77,69.07-48.11l37.21-21s18.58,9,19.38,9.69c42.51,35.62,88.43,77.44,131.1,107.21,71.39,49.82,144.45,88.35,216.17,137.68,49,33.73,18,115.94,22.76,217.4,4.18,89.47,7.7,179,10.06,268.52C2271.94,1423.06,2271.7,1456.3,2280,1475.72Z" transform="translate(-297.78 -435.88)"/>
  </g>

  <g id="Layer_9" data-name="Layer 9">
    <path class="cls-1" d="M1729.88,2587.47c-179,19.53-359.41,20.78-539.25,17.46-88.74-1.64-177.46-4.42-266.18-6.94-65.76-1.87-150.2,10.4-204.8-34.22-12.22-10-22.12-22.47-31.91-34.85-56.3-71.14-111.92-142.36-165.81-215.3-28.59-38.69-57.29-77.31-87-115.11-12.53-15.92-69.21-105.07-88-105.07-16-17.75-32.67-35.77-41.74-57.92-22.3-54.46,15.13-97.81,39.38-143L368.75,1844l12.95-26.7c37.18-54.07,69.78-111.17,99.63-169.57,14.55-28.46,28.43-57.26,41.88-86.25,10.79-23.24,18.43-58.42,42.13-71.82l25.89-10.51c75.24-14.34,155-12.72,231.58-15.24,96.35-3.18,196.32-10.76,291.83.68l18.21,6.47c37,19,63.8,51.73,93.47,80.7q55.42,54.09,111.32,107.72c214.8,206.09,424.46,401.25,647.07,599.13,139.78,125.24,285.62,263.69,424.72,389.53,104.31,94.36,205.57,188.44,315.29,276.43,28.59,22.93,57.47,45.49,86.36,68.05,43.28,34.62,87.39,68.26,131.07,102.38,36.62,28.6,49.23,39.18,84.13,67.65,0,0,27.9,30.33,28.3,30.73,16.57,16.57,11.42,63.06,13,83.83q5.31,69.08,7.91,138.32c4,105.26,1.78,210.69.93,315.84v284l1.62,127-.81,29.12-.81,17s-4.05,10.52-4.05,12.94,1.62,13,1.62,13l-.81,12.13L3070,4237s-6.46,12.11-6.48,14.55c-.06,12.06-12.39,21.31-22.65,24.37-20,5.95-40.62-5.64-58-17.19-41.4-27.53-96.83-59-128.88-97l-15.37-12.94-15.38-11.33c-137.55-114.63-283.92-219.61-423.31-332.39q-222.47-180-437.13-369.37-111-97.93-219.83-198.3c-58.61-54-114-116.67-177.7-164.56l-8.09-9.71-7.28-.81h-8.09l-2.43,5.66-3.23,8.88c-9.25,25.45-2.15,67.68-2.36,94.08q-.62,75.65-1.58,151.29-1.92,151.29-5.29,302.55-6.74,302.52-19.2,604.88-3.33,81-7.09,161.92c-1.14,24.76-18.61,93,10.44,107.5,54.31,31.16,108.2,63,162,95.1q39.69,23.67,79.35,47.4c21.87,13.07,43.62,27.19,72.54,43.57h9.71c2.26,0,1,1.42,9.51-3.24,11.41-6.24,17.9-9.84,49-34.52,21.16-16.8,44.92-30,67.69-44.57,49.45-31.61,102.56-58.3,151.3-90.79,29.18-18,48-29.51,48.43-67.63q1.82-147.11-1.86-294.22q-1.8-72.54-5-145q-1.57-36.24-3.47-72.47c-1-18.41-13-51.32.82-66.59,22.6,30,66,53.6,95.81,76.83l103.75,80.82c2.85,2.22,5.77,4.52,7.63,7.63,7,11.78-2.25,46.14-2.55,60.09q-.86,39.8,0,79.59q1.67,77.6,9.82,154.86c6.57,62.23,21.18,124.71,15,187.62-2.59,26.52-8.53,58-25.29,79.56s-44.76,32.46-68.7,44.06c-36.87,17.86-70.76,41.21-104.48,64.46-53.35,36.77-107.88,72-160.48,109.62-52.16,37.3-106.1,73.18-165.85,97.22-7.29,2.93-15,5.72-22.78,5-28.26-2.56-60-30.08-83.55-44.08l-100.17-59.64c-71.84-42.77-144.47-84.63-216.68-126.2-34.27-19.74-68.44-40.41-103.11-59.93-9.57-5.4-19.22-10.84-27.51-18.06-18-15.7-28.24-38.63-34.32-61.76-16.31-62.14-11.75-128.1-5.44-192,5.94-60.3,7.46-120.11,9.38-180.34l8.09-84.13-1.61-58.25,1.61-56.63,3.24-42.07,6.47-55,4.86-38.83,4.85-55,1.62-56.63,4.85-92.22V3530.75l1.62-108.4v-110l1.62-80.9-4.86-72.81,4.86-64.72s-1.5-46.32-1.61-49.94c-1.34-41.35-2.41-82.71-3.78-124.06-.72-21.63-1.41-43.27-1.89-64.91-.32-13.95-8.09-54.49-.71-65.92,11.44-17.73,92.48-7.68,114.59-7.86,40.59-.33,118.73-15.33,147.42,13.36,44.21,60,108.38,112.08,162.38,163.71q101.1,96.66,206.63,188.54c140.64,122.85,286.2,240,434.18,353.83,157,120.83,316.81,238,476.85,354.83,9.29,6.78,20,13.92,31.35,11.91,29.4-5.26,4-148.75,9-222.31,9-133.19-15.49-186.33-5-331.14l1.07-12.94-2.69-12.4-5.4-15.11s-18.39-17.24-18.87-17.79c-15.65-18-26.7-25.08-75.78-62.44q-56.27-42.84-111.88-86.54c-191.17-150.21-385.07-303.38-555.53-477.18l-12.95-11.33L2077.34,2602l-15.64-17.25-12.41-13-16.15-16.15c-93.2-93.2-201.53-174.35-298.41-264.3-147.45-136.89-288.21-280.13-434.56-417.44q-97.47-97.47-196-193.89c-39.87-39.23-67.44-47.18-121.12-47.18-71,0-142.72-.1-213.57,4.85L758.15,1641l-4.83,4.83c-34,34-59.89,87-87.18,126.78q-59.37,86.64-115.33,175.57l0,0c-24.25,38.56-4.2,69.33,21.57,101.21,84.08,104,165.59,211,255.36,310l9.17,9.7,7.55,6.48,13.48,2.69,26.43.54c188.87,3.86,375.54,16.65,564.7,6.72,97.19-5.1,79.39-2.27,131.14,48.56,49.77,48.86,102.75,96.15,148.2,149.13Z" transform="translate(-297.78 -435.88)"/>
  </g>
</svg>
